<svg width="24" height="13" viewBox="0 0 24 13" fill="none" xmlns="http://www.w3.org/2000/svg">
<path d="M4.41 1.2V12H1.818V1.2H4.41ZM8.622 11.28L9.036 12H4.374V11.28H8.622ZM8.01 6.294V7.014H4.374V6.294H8.01ZM8.82 1.2V1.92H4.374V1.2H8.82ZM9.774 8.688L9.09 12H5.976L6.534 11.28C7.05 11.28 7.506 11.178 7.902 10.974C8.31 10.758 8.658 10.458 8.946 10.074C9.234 9.678 9.456 9.216 9.612 8.688H9.774ZM8.01 6.978V8.562H7.83V8.418C7.83 8.022 7.704 7.692 7.452 7.428C7.212 7.164 6.882 7.026 6.462 7.014V6.978H8.01ZM8.01 4.746V6.33H6.462V6.294C6.882 6.282 7.212 6.144 7.452 5.88C7.704 5.604 7.83 5.268 7.83 4.872V4.746H8.01ZM8.82 1.884V3.792H8.64V3.63C8.64 3.102 8.496 2.688 8.208 2.388C7.932 2.088 7.53 1.932 7.002 1.92V1.884H8.82ZM8.82 0.93V1.362L6.93 1.2C7.278 1.2 7.644 1.17 8.028 1.11C8.412 1.038 8.676 0.978 8.82 0.93ZM1.854 10.866L1.944 12H0.612V11.82C0.612 11.82 0.648 11.82 0.72 11.82C0.792 11.82 0.834 11.82 0.846 11.82C1.11 11.82 1.332 11.73 1.512 11.55C1.704 11.358 1.806 11.13 1.818 10.866H1.854ZM1.854 2.334H1.818C1.806 2.058 1.704 1.83 1.512 1.65C1.332 1.47 1.11 1.38 0.846 1.38C0.834 1.38 0.792 1.38 0.72 1.38C0.648 1.38 0.612 1.38 0.612 1.38V1.2H1.944L1.854 2.334ZM11.7982 0.948L22.3642 10.236L22.5442 12.234L11.9962 2.946L11.7982 0.948ZM11.8702 10.902V12H10.5382V11.82C10.5382 11.82 10.5862 11.82 10.6822 11.82C10.7782 11.82 10.8262 11.82 10.8262 11.82C11.1022 11.82 11.3362 11.736 11.5282 11.568C11.7202 11.388 11.8162 11.166 11.8162 10.902H11.8702ZM14.2822 10.902C14.2942 11.166 14.3962 11.388 14.5882 11.568C14.7802 11.736 15.0082 11.82 15.2722 11.82C15.2722 11.82 15.3202 11.82 15.4162 11.82C15.5242 11.82 15.5782 11.82 15.5782 11.82V12H14.2462V10.902H14.2822ZM11.7982 0.948L14.2822 3.648V12H11.8162V3C11.8162 2.388 11.7862 1.896 11.7262 1.524C11.6662 1.14 11.6362 0.948 11.6362 0.948H11.7982ZM22.5262 1.2V10.128C22.5262 10.548 22.5382 10.92 22.5622 11.244C22.5982 11.556 22.6282 11.802 22.6522 11.982C22.6882 12.15 22.7062 12.234 22.7062 12.234H22.5442L20.0602 9.372V1.2H22.5262ZM22.4722 2.298V1.2H23.8222V1.38C23.8222 1.38 23.7682 1.38 23.6602 1.38C23.5642 1.38 23.5162 1.38 23.5162 1.38C23.2522 1.38 23.0182 1.47 22.8142 1.65C22.6222 1.818 22.5262 2.034 22.5262 2.298H22.4722ZM20.0602 2.298C20.0482 2.034 19.9462 1.818 19.7542 1.65C19.5742 1.47 19.3462 1.38 19.0702 1.38C19.0702 1.38 19.0162 1.38 18.9082 1.38C18.8122 1.38 18.7642 1.38 18.7642 1.38V1.2H20.0962V2.298H20.0602Z" fill="white"/>
</svg>
