<svg width="23" height="12" fill="none" xmlns="http://www.w3.org/2000/svg"><path d="M4.41 1.2V12H1.818V1.2H4.41zm3.618 5.094v.72H4.374v-.72h3.654zM8.856 1.2v.72H4.374V1.2h4.482zm-.828 5.778v1.584h-.18v-.144c0-.396-.126-.726-.378-.99-.24-.264-.576-.402-1.008-.414v-.036h1.566zm0-2.232V6.33H6.462v-.036c.432-.012.768-.15 1.008-.414.252-.276.378-.612.378-1.008v-.126h.18zm.828-2.88V3.81h-.198v-.18c0-.516-.144-.924-.432-1.224-.276-.312-.684-.474-1.224-.486v-.054h1.854zm0-.936v.432L6.948 1.2c.228 0 .468-.012.72-.036.264-.036.504-.072.72-.108.216-.048.372-.09.468-.126zm-6.984 9.936L1.944 12H.612v-.18H.846c.264 0 .492-.09.684-.27a.934.934 0 00.288-.684h.054zm0-8.532h-.054a.897.897 0 00-.288-.684.966.966 0 00-.684-.27H.612V1.2h1.332l-.072 1.134zm2.502 8.532h.036c.012.264.108.492.288.684.192.18.426.27.702.27H5.634l-.018.18H4.302l.072-1.134zM13.971 1.2h1.944c.492 0 .972.054 1.44.162.468.096.888.258 1.26.486.372.216.666.516.882.9.228.372.342.84.342 1.404 0 .42-.09.84-.27 1.26a2.653 2.653 0 01-.81 1.062c-.36.3-.834.498-1.422.594.348.108.678.318.99.63.324.312.576.606.756.882.048.096.132.252.252.468.12.204.27.444.45.72.192.264.39.54.594.828.24.324.45.576.63.756.18.168.366.288.558.36.192.072.414.108.666.108V12H20.72c-.648 0-1.2-.048-1.656-.144a2.968 2.968 0 01-1.17-.522c-.324-.264-.624-.618-.9-1.062a6.734 6.734 0 01-.342-.558l-.36-.684c-.12-.228-.228-.45-.324-.666a4.69 4.69 0 01-.18-.54c-.156-.384-.336-.66-.54-.828-.192-.18-.372-.27-.54-.27v-.162h.45c.252 0 .498-.042.738-.126.252-.096.48-.27.684-.522.204-.264.354-.648.45-1.152.024-.072.042-.174.054-.306.024-.132.03-.282.018-.45-.024-.444-.108-.798-.252-1.062-.132-.276-.3-.48-.504-.612a1.749 1.749 0 00-.63-.288 1.945 1.945 0 00-.54-.09 5.507 5.507 0 00-.63 0 3.58 3.58 0 01-.414-.018c-.012 0-.03-.06-.054-.18a21.97 21.97 0 00-.072-.378l-.036-.18zm.18 0V12h-2.61V1.2h2.61zm-2.556 9.666L11.667 12H10.37v-.18h.216c.264 0 .486-.09.666-.27.192-.192.294-.42.306-.684h.036zm0-8.55h-.036a.897.897 0 00-.306-.666.884.884 0 00-.648-.27H10.37V1.2h1.296l-.072 1.116zm2.52 8.55h.036c0 .3.102.534.306.702.216.168.444.252.684.252h.18V12h-1.296l.09-1.134z" fill="#fff"/></svg>