<svg width="25" height="13" fill="none" xmlns="http://www.w3.org/2000/svg"><path d="M4.842.4V13h-2.7V.4h2.7zm4.086 6.012v.756h-4.14v-.756h4.14zM9.81.4v.774H4.788V.4H9.81zm-.882 6.732V8.86h-.18v-.144c0-.444-.144-.81-.432-1.098-.288-.288-.654-.438-1.098-.45v-.036h1.71zm0-2.412v1.728h-1.71v-.036c.444-.012.81-.162 1.098-.45.288-.3.432-.672.432-1.116V4.72h.18zm.882-3.6v1.998h-.18v-.18c0-.54-.162-.966-.486-1.278-.312-.324-.738-.486-1.278-.486V1.12H9.81zm0-1.044v.522L7.614.4c.264 0 .54-.018.828-.054.3-.036.576-.078.828-.126s.432-.096.54-.144zm-7.614 11.61V13H.756v-.18H.99c.312 0 .576-.108.792-.324.228-.228.348-.498.36-.81h.054zm0-9.972h-.054a1.112 1.112 0 00-.36-.792A1.05 1.05 0 00.99.58H.756V.4h1.44v1.314zm2.592 9.972h.054c.012.312.126.582.342.81.228.216.498.324.81.324H6.228V13h-1.44v-1.314zM15.385.4h2.322c.54 0 1.068.06 1.584.18s.972.312 1.368.576c.408.264.732.612.972 1.044.24.432.36.966.36 1.602 0 .504-.108 1.008-.324 1.512a3.288 3.288 0 01-.954 1.278c-.432.348-.99.558-1.674.63.384.12.732.336 1.044.648.324.312.588.624.792.936.012.024.078.132.198.324.132.192.288.432.468.72.192.276.39.558.594.846.204.288.39.54.558.756.264.324.504.588.72.792.216.192.444.336.684.432.24.084.516.132.828.144V13H23.16a8.829 8.829 0 01-1.764-.162 4.101 4.101 0 01-1.404-.594 3.792 3.792 0 01-1.062-1.116 7.97 7.97 0 01-.324-.54l-.342-.72c-.12-.252-.24-.492-.36-.72-.108-.24-.204-.456-.288-.648a5.73 5.73 0 01-.18-.45c-.156-.384-.342-.672-.558-.864a1.231 1.231 0 00-.666-.342v-.18h.558a2.3 2.3 0 00.936-.198c.312-.132.588-.348.828-.648.24-.3.408-.714.504-1.242.024-.108.042-.234.054-.378.024-.144.03-.306.018-.486-.036-.864-.252-1.494-.648-1.89a2.035 2.035 0 00-1.476-.63 4.319 4.319 0 00-.558 0H15.565c0-.012-.018-.078-.054-.198a4.7 4.7 0 00-.09-.396L15.385.4zm.234 0V13h-2.7V.4h2.7zm-2.646 11.286V13h-1.44v-.18H11.767c.312 0 .576-.108.792-.324.228-.228.348-.498.36-.81h.054zm0-9.972h-.054a1.112 1.112 0 00-.36-.792 1.05 1.05 0 00-.792-.342H11.533V.4h1.44v1.314zm2.592 9.972h.054a1.138 1.138 0 001.152 1.134h.216V13h-1.422v-1.314z" fill="#fff"/></svg>