<svg width="24" height="24" viewBox="0 0 24 24" fill="none" xmlns="http://www.w3.org/2000/svg">
<g clip-path="url(#clip0_3986_1714)">
<path d="M21.6353 0H14.3724C13.0636 0 12.0026 1.06351 12.0026 2.37543V2.38055C12.0026 3.69246 13.0636 4.75597 14.3724 4.75597H21.6353C22.9441 4.75597 24.0051 3.69246 24.0051 2.38055V2.37543C24.0051 1.06351 22.9441 0 21.6353 0Z" fill="white"/>
<path d="M2.57927 0H2.51287C1.20403 0 0.143005 1.06351 0.143005 2.37543V2.38055C0.143005 3.69246 1.20403 4.75597 2.51287 4.75597H2.57927C3.88811 4.75597 4.94913 3.69246 4.94913 2.38055V2.37543C4.94913 1.06351 3.88811 0 2.57927 0Z" fill="white"/>
<path d="M21.5995 19.244H21.5331C20.2243 19.244 19.1632 20.3075 19.1632 21.6194V21.6246C19.1632 22.9365 20.2243 24 21.5331 24H21.5995C22.9083 24 23.9694 22.9365 23.9694 21.6246V21.6194C23.9694 20.3075 22.9083 19.244 21.5995 19.244Z" fill="white"/>
<path d="M9.87274 19.244H2.60992C1.30108 19.244 0.240051 20.3075 0.240051 21.6194V21.6246C0.240051 22.9365 1.30108 24 2.60992 24H9.87274C11.1816 24 12.2426 22.9365 12.2426 21.6246V21.6194C12.2426 20.3075 11.1816 19.244 9.87274 19.244Z" fill="white"/>
<path d="M21.6301 9.65018H2.36987C1.06103 9.65018 0 10.7137 0 12.0256V12.0307C0 13.3426 1.06103 14.4061 2.36987 14.4061H21.6301C22.939 14.4061 24 13.3426 24 12.0307V12.0256C24 10.7137 22.939 9.65018 21.6301 9.65018Z" fill="white"/>
</g>
<defs>
<clipPath id="clip0_3986_1714">
<rect width="24" height="24" fill="white"/>
</clipPath>
</defs>
</svg>
